<svg width="133" height="25" viewBox="0 0 133 25" fill="none" xmlns="http://www.w3.org/2000/svg">
<path d="M0.645 2.816C0.645 2.28333 0.833 1.79767 1.209 1.359C1.61633 0.888999 2.102 0.654 2.666 0.654H22.312C22.9073 0.654 23.393 0.888999 23.769 1.359C24.145 1.79767 24.333 2.28333 24.333 2.816C24.333 3.41133 24.1763 3.85 23.863 4.132C23.5497 4.414 23.158 4.63333 22.688 4.79C22.218 4.91533 21.701 5.025 21.137 5.119C20.6043 5.18167 20.103 5.29133 19.633 5.448C19.163 5.60467 18.7713 5.85533 18.458 6.2C18.1447 6.51333 17.988 6.999 17.988 7.657V22.274C17.988 22.462 17.941 22.697 17.847 22.979C17.7843 23.261 17.6747 23.5273 17.518 23.778C17.3927 23.9973 17.2203 24.201 17.001 24.389C16.813 24.5457 16.5937 24.624 16.343 24.624H11.032C10.5933 24.624 10.139 24.4987 9.669 24.248C9.23033 23.966 8.823 23.637 8.447 23.261C8.071 22.8537 7.75767 22.415 7.507 21.945C7.28767 21.475 7.178 21.0363 7.178 20.629V7.657C7.178 7.03033 7.00567 6.56033 6.661 6.247C6.34767 5.90233 5.956 5.65167 5.486 5.495C5.016 5.33833 4.48333 5.22867 3.888 5.166C3.324 5.072 2.807 4.96233 2.337 4.837C1.867 4.68033 1.45967 4.461 1.115 4.179C0.801667 3.86567 0.645 3.41133 0.645 2.816ZM31.2993 24.624C30.3906 24.3733 29.5446 23.9033 28.7613 23.214C28.0093 22.5247 27.6333 21.663 27.6333 20.629V4.978C27.6333 3.944 28.0093 3.08233 28.7613 2.393C29.5446 1.70367 30.3906 1.23367 31.2993 0.982998C32.3333 0.888999 33.2419 0.826333 34.0253 0.794998C34.8086 0.732332 35.5606 0.685333 36.2813 0.654C37.0333 0.622665 37.7853 0.606997 38.5373 0.606997C39.3206 0.606997 40.1823 0.606997 41.1223 0.606997C42.0623 0.606997 42.9083 0.606997 43.6603 0.606997C44.4436 0.606997 45.1956 0.622665 45.9163 0.654C46.6683 0.685333 47.4359 0.732332 48.2193 0.794998C49.0026 0.826333 49.9113 0.888999 50.9453 0.982998C51.8539 1.23367 52.6843 1.70367 53.4363 2.393C54.2196 3.08233 54.6113 3.944 54.6113 4.978V20.629C54.6113 21.663 54.2196 22.5247 53.4363 23.214C52.6843 23.9033 51.8539 24.3733 50.9453 24.624C49.9113 24.718 49.0026 24.7807 48.2193 24.812C47.4359 24.8433 46.6683 24.8747 45.9163 24.906C45.1956 24.9373 44.4436 24.953 43.6603 24.953C42.9083 24.953 42.0623 24.953 41.1223 24.953C40.1823 24.953 39.3206 24.953 38.5373 24.953C37.7853 24.953 37.0333 24.9373 36.2813 24.906C35.5606 24.8747 34.8086 24.8433 34.0253 24.812C33.2419 24.7807 32.3333 24.718 31.2993 24.624ZM41.1223 5.213C40.3076 5.213 39.6339 5.46367 39.1013 5.965C38.5686 6.46633 38.3023 7.14 38.3023 7.986V17.621C38.3023 18.467 38.5686 19.1407 39.1013 19.642C39.6339 20.1433 40.3076 20.394 41.1223 20.394C41.9369 20.394 42.6106 20.1433 43.1433 19.642C43.6759 19.1407 43.9423 18.467 43.9423 17.621V7.986C43.9423 7.14 43.6759 6.46633 43.1433 5.965C42.6106 5.46367 41.9369 5.213 41.1223 5.213ZM61.5464 0.982998C62.5804 0.888999 63.489 0.826333 64.2724 0.794998C65.0557 0.732332 65.8077 0.685333 66.5284 0.654C67.2804 0.622665 68.0324 0.606997 68.7844 0.606997C69.5677 0.606997 70.4294 0.606997 71.3694 0.606997C72.3094 0.606997 73.1554 0.606997 73.9074 0.606997C74.6907 0.606997 75.4427 0.622665 76.1634 0.654C76.9154 0.685333 77.683 0.732332 78.4664 0.794998C79.2497 0.826333 80.1584 0.888999 81.1924 0.982998C82.0697 1.23367 82.759 1.57833 83.2604 2.017C83.7617 2.45567 84.122 2.97267 84.3414 3.568C84.592 4.16333 84.7487 4.82133 84.8114 5.542C84.874 6.26267 84.9054 7.01467 84.9054 7.798C84.9054 8.42467 84.874 9.12967 84.8114 9.913C84.78 10.665 84.639 11.3857 84.3884 12.075C84.1377 12.7643 83.7617 13.3597 83.2604 13.861C82.759 14.331 82.0697 14.5817 81.1924 14.613L70.1944 15.318C70.0064 15.318 69.8184 15.3963 69.6304 15.553C69.4424 15.7097 69.2544 15.8977 69.0664 16.117C68.9097 16.3363 68.7844 16.5557 68.6904 16.775C68.5964 16.9943 68.5494 17.1667 68.5494 17.292V22.603C68.5494 22.979 68.377 23.4177 68.0324 23.919C67.6877 24.389 67.296 24.624 66.8574 24.624H61.5464C61.0764 24.624 60.622 24.4987 60.1834 24.248C59.7447 23.9973 59.353 23.684 59.0084 23.308C58.6637 22.9007 58.3817 22.462 58.1624 21.992C57.9744 21.522 57.8804 21.0677 57.8804 20.629V4.978C57.8804 3.944 58.2564 3.08233 59.0084 2.393C59.7917 1.70367 60.6377 1.23367 61.5464 0.982998ZM68.5024 7.798C68.5024 8.738 68.7687 9.396 69.3014 9.772C69.8654 10.148 70.5547 10.336 71.3694 10.336C72.184 10.336 72.8577 10.148 73.3904 9.772C73.9544 9.396 74.2364 8.738 74.2364 7.798C74.2364 6.858 73.9544 6.2 73.3904 5.824C72.8577 5.448 72.184 5.26 71.3694 5.26C70.5547 5.26 69.8654 5.448 69.3014 5.824C68.7687 6.2 68.5024 6.858 68.5024 7.798ZM88.1733 2.863C88.1733 2.393 88.2673 2.017 88.4553 1.735C88.6747 1.42167 88.9253 1.18667 89.2073 1.03C89.5207 0.873331 89.8653 0.779331 90.2413 0.747998C90.6487 0.685333 91.0403 0.654 91.4163 0.654C91.8863 0.654 92.466 0.654 93.1553 0.654C93.8447 0.622665 94.581 0.622665 95.3643 0.654C96.1477 0.685333 96.9153 0.779332 97.6673 0.935999C98.4193 1.09267 99.1087 1.32767 99.7353 1.641C100.362 1.95433 100.863 2.393 101.239 2.957C101.615 3.48967 101.803 4.179 101.803 5.025V20.629C101.803 21.0677 101.694 21.522 101.474 21.992C101.286 22.462 101.02 22.9007 100.675 23.308C100.331 23.684 99.939 23.9973 99.5003 24.248C99.0617 24.4987 98.6073 24.624 98.1373 24.624H92.8263C92.5757 24.624 92.3407 24.5457 92.1213 24.389C91.9333 24.201 91.761 23.9973 91.6043 23.778C91.479 23.5273 91.3693 23.2767 91.2753 23.026C91.2127 22.744 91.1813 22.509 91.1813 22.321V7.657C91.1813 7.15567 91.0247 6.717 90.7113 6.341C90.398 5.965 90.0533 5.60467 89.6773 5.26C89.3013 4.91533 88.9567 4.57067 88.6433 4.226C88.33 3.85 88.1733 3.39567 88.1733 2.863ZM108.776 24.624C107.867 24.3733 107.021 23.9033 106.238 23.214C105.486 22.5247 105.11 21.663 105.11 20.629V4.978C105.11 3.944 105.486 3.08233 106.238 2.393C107.021 1.70367 107.867 1.23367 108.776 0.982998C109.81 0.888999 110.719 0.826333 111.502 0.794998C112.285 0.732332 113.037 0.685333 113.758 0.654C114.51 0.622665 115.262 0.606997 116.014 0.606997C116.797 0.606997 117.659 0.606997 118.599 0.606997C119.539 0.606997 120.385 0.606997 121.137 0.606997C121.92 0.606997 122.672 0.622665 123.393 0.654C124.145 0.685333 124.913 0.732332 125.696 0.794998C126.479 0.826333 127.388 0.888999 128.422 0.982998C128.861 1.10833 129.299 1.29633 129.738 1.547C130.177 1.76633 130.568 2.04833 130.913 2.393C131.258 2.73767 131.54 3.12933 131.759 3.568C131.978 4.00667 132.088 4.47667 132.088 4.978V20.629C132.088 21.1617 131.978 21.6473 131.759 22.086C131.54 22.4933 131.258 22.8693 130.913 23.214C130.568 23.5587 130.177 23.8563 129.738 24.107C129.299 24.3263 128.861 24.4987 128.422 24.624C127.388 24.718 126.479 24.7807 125.696 24.812C124.913 24.8433 124.145 24.8747 123.393 24.906C122.672 24.9373 121.92 24.953 121.137 24.953C120.385 24.953 119.539 24.953 118.599 24.953C117.659 24.953 116.797 24.953 116.014 24.953C115.262 24.953 114.51 24.9373 113.758 24.906C113.037 24.8747 112.285 24.8433 111.502 24.812C110.719 24.7807 109.81 24.718 108.776 24.624ZM118.599 5.213C117.784 5.213 117.111 5.46367 116.578 5.965C116.045 6.46633 115.779 7.14 115.779 7.986V17.621C115.779 18.467 116.045 19.1407 116.578 19.642C117.111 20.1433 117.784 20.394 118.599 20.394C119.414 20.394 120.087 20.1433 120.62 19.642C121.153 19.1407 121.419 18.467 121.419 17.621V7.986C121.419 7.14 121.153 6.46633 120.62 5.965C120.087 5.46367 119.414 5.213 118.599 5.213Z" fill="#AA236D"/>
</svg>
